<?xml version="1.0" standalone="no"?>
<!DOCTYPE svg PUBLIC "-//W3C//DTD SVG 20010904//EN"
 "http://www.w3.org/TR/2001/REC-SVG-20010904/DTD/svg10.dtd">
<svg version="1.0" xmlns="http://www.w3.org/2000/svg"
 width="1280.000000pt" height="1280.000000pt" viewBox="0 0 1280.000000 1280.000000"
 preserveAspectRatio="xMidYMid meet">
<metadata>
Created by potrace 1.15, written by Peter Selinger 2001-2017
</metadata>
<g transform="translate(0.000000,1280.000000) scale(0.100000,-0.100000)"
fill="#000000" stroke="none">
<path d="M6614 12370 c-253 -46 -443 -215 -461 -411 -5 -52 -3 -58 18 -72 19
-12 36 -13 84 -6 126 19 125 18 125 42 0 47 23 101 61 142 71 77 208 118 287
86 27 -11 32 -18 32 -48 0 -40 -36 -116 -82 -177 -18 -23 -116 -126 -218 -231
-102 -104 -207 -214 -232 -243 l-45 -53 -5 28 c-3 15 -25 164 -49 330 l-44
303 -48 21 c-38 16 -60 19 -96 14 -51 -7 -197 9 -278 30 l-53 13 -25 -30 c-14
-16 -27 -39 -30 -51 -19 -91 -23 -123 -17 -129 9 -9 140 -35 235 -47 43 -5 80
-11 82 -13 2 -2 7 -134 12 -293 l8 -290 103 -39 c80 -31 101 -43 96 -56 -3 -8
-8 -40 -11 -70 -4 -46 -2 -58 15 -73 19 -17 36 -15 503 64 266 46 486 84 488
85 9 7 -12 235 -24 250 -11 16 -29 14 -285 -35 -149 -29 -274 -51 -276 -48 -2
2 68 78 157 168 192 196 279 301 322 389 29 59 32 73 32 160 0 81 -4 102 -25
143 -60 119 -197 175 -356 147z"/>
<path d="M3056 11473 c-23 -23 -41 -80 -48 -157 -3 -25 1 -30 27 -38 51 -14
198 -38 235 -38 19 0 41 -4 48 -9 10 -6 15 -75 20 -296 l7 -288 118 -45 c102
-39 121 -43 141 -33 33 18 56 63 56 111 0 36 -97 731 -103 736 -1 1 -22 12
-46 24 -36 18 -54 21 -96 15 -56 -7 -200 8 -282 29 -51 14 -53 13 -77 -11z"/>
<path d="M3648 11453 c-24 -26 -36 -62 -44 -131 l-6 -60 53 -11 c30 -7 101
-19 158 -27 58 -8 107 -17 110 -20 3 -3 8 -134 11 -291 l5 -286 118 -45 c137
-53 155 -51 187 22 l20 43 -45 309 c-25 170 -50 339 -56 376 l-11 66 -48 21
c-38 17 -61 20 -107 15 -50 -5 -135 4 -293 32 -27 4 -39 1 -52 -13z"/>
<path d="M8756 11428 c-9 -5 -22 -21 -30 -36 -19 -37 -40 -152 -29 -163 11
-11 161 -40 247 -48 l71 -6 5 -285 c3 -157 8 -290 12 -296 4 -6 57 -30 118
-54 130 -51 149 -48 181 25 l20 44 -51 348 c-28 191 -53 361 -56 376 -8 39
-92 77 -144 65 -40 -9 -200 6 -276 26 -33 9 -57 10 -68 4z"/>
<path d="M11082 9720 c-214 -56 -361 -198 -395 -381 -10 -55 -9 -61 10 -80 19
-20 24 -20 115 -8 l95 12 12 58 c22 108 128 193 257 206 59 6 110 -9 119 -36
8 -28 -19 -104 -61 -167 -21 -33 -136 -158 -254 -279 -119 -121 -237 -250
-263 -286 -93 -132 -145 -286 -112 -336 9 -13 25 -23 36 -23 20 0 962 160 966
164 8 7 -20 243 -30 253 -10 10 -71 1 -287 -41 -151 -29 -277 -52 -279 -50 -3
2 70 80 161 172 189 191 236 244 289 325 52 81 74 148 73 232 -1 120 -54 207
-159 256 -51 25 -72 29 -140 28 -45 0 -112 -8 -153 -19z"/>
<path d="M927 9410 c-27 -32 -40 -77 -41 -144 -1 -39 0 -39 49 -52 28 -8 95
-19 150 -25 55 -6 106 -13 113 -15 9 -3 12 -67 12 -276 0 -150 3 -282 6 -294
4 -15 33 -31 117 -62 62 -23 119 -42 129 -42 23 0 66 55 73 93 3 18 -1 73 -9
122 -7 50 -12 91 -11 93 2 2 17 -4 34 -12 62 -32 153 -46 311 -46 245 0 394
40 469 125 43 50 51 73 51 159 0 59 -5 82 -27 127 -57 111 -163 149 -410 149
-227 -1 -374 -35 -446 -105 -40 -39 -40 -40 -53 70 -3 33 -10 67 -15 77 -9 17
-97 55 -114 49 -41 -13 -265 9 -345 34 -12 4 -27 -5 -43 -25z m1145 -283 c36
-15 68 -50 68 -75 0 -7 -25 -24 -55 -38 -97 -45 -294 -50 -390 -10 -41 17 -41
20 -15 64 21 34 63 57 134 72 58 13 216 5 258 -13z"/>
<path d="M976 7174 c-124 -40 -219 -143 -263 -289 -27 -92 -24 -298 6 -384 47
-136 140 -236 248 -267 78 -23 174 -16 242 18 l53 26 -7 -46 c-25 -169 -104
-282 -198 -282 -44 0 -65 29 -87 120 -15 58 -19 65 -43 68 -23 3 -165 -20
-203 -33 -17 -5 9 -131 39 -191 32 -62 87 -117 146 -146 38 -19 62 -23 141
-23 83 0 103 4 157 29 161 74 254 249 282 531 55 551 -85 869 -389 882 -48 2
-92 -3 -124 -13z m180 -213 c100 -61 137 -294 67 -429 -34 -66 -71 -96 -118
-96 -48 0 -84 30 -120 99 -28 54 -30 66 -30 164 1 125 23 189 86 246 44 40 70
43 115 16z"/>
<path d="M11275 6796 c-45 -19 -95 -81 -95 -116 0 -28 7 -34 85 -72 l84 -42
25 23 c22 21 32 23 73 17 44 -6 193 -68 193 -80 0 -6 -69 18 -99 33 -29 16
-57 -13 -86 -92 -14 -37 -25 -71 -25 -76 0 -5 30 -19 68 -31 97 -31 175 -76
234 -134 52 -51 52 -51 25 -54 -15 -2 -53 4 -84 13 -136 40 -254 126 -292 214
-19 45 -26 51 -78 71 -111 41 -140 46 -162 26 -28 -26 -44 -80 -36 -124 31
-171 244 -343 530 -427 109 -32 220 -37 280 -11 79 34 136 113 137 192 1 58
-42 144 -97 192 -41 36 -42 39 -29 62 18 33 18 94 -1 129 -21 41 -117 125
-193 170 -184 107 -371 155 -457 117z"/>
<path d="M11252 4104 c-46 -7 -89 -17 -95 -22 -7 -5 -146 -106 -309 -226 -221
-161 -300 -224 -304 -243 -6 -24 22 -139 36 -148 4 -3 104 8 221 24 310 42
282 42 290 3 4 -19 11 -37 15 -42 10 -8 152 10 170 22 6 4 14 25 18 47 l6 39
67 7 c86 9 97 15 111 63 15 50 15 74 0 108 -12 25 -15 26 -75 21 -35 -2 -63
-1 -63 3 0 4 12 65 26 135 22 108 24 135 15 167 -7 21 -19 41 -29 46 -9 4 -54
3 -100 -4z m-152 -363 c0 -14 -9 -21 -31 -26 -43 -10 -45 -1 -7 24 40 25 38
25 38 2z"/>
<path d="M1553 3980 c-77 -16 -141 -59 -169 -111 -37 -73 -35 -152 7 -211 19
-26 19 -27 0 -60 -77 -132 4 -243 229 -316 107 -35 238 -55 355 -56 180 -1
251 36 274 143 11 52 4 95 -24 137 -14 21 -13 27 10 70 30 56 34 138 9 190
-55 116 -284 210 -534 219 -63 2 -134 0 -157 -5z m323 -261 c84 -26 90 -39 17
-39 -92 1 -223 37 -223 63 0 14 131 -1 206 -24z m-53 -244 c38 -8 92 -25 120
-39 l52 -24 -40 -2 c-66 -3 -127 1 -175 11 -59 12 -150 49 -150 60 0 14 117
10 193 -6z"/>
<path d="M3719 2133 l-367 -124 -10 -52 c-11 -58 3 -112 34 -124 9 -3 78 13
153 37 194 61 181 59 146 19 -114 -130 -255 -422 -255 -529 0 -36 31 -90 55
-96 12 -3 69 9 127 26 l104 32 16 82 c36 192 160 402 361 613 l89 92 -12 53
c-13 63 -34 99 -58 96 -9 0 -182 -57 -383 -125z"/>
<path d="M8813 2217 c-6 -6 -51 -91 -102 -188 -65 -126 -91 -187 -91 -212 0
-20 4 -39 10 -42 5 -3 47 -13 94 -21 83 -14 84 -14 137 11 72 33 204 35 305 4
81 -25 154 -88 154 -132 0 -58 -115 -103 -240 -94 -136 10 -227 61 -255 142
-13 39 -15 40 -67 47 -29 3 -81 6 -116 7 -59 1 -63 0 -73 -26 -14 -35 0 -133
27 -189 44 -92 173 -175 329 -210 118 -27 298 -25 390 3 134 42 218 121 251
238 54 192 -78 359 -336 424 l-75 19 75 -7 c41 -3 106 -6 144 -6 66 0 70 1 76
26 6 21 -6 147 -14 156 -2 2 -124 14 -272 28 -148 13 -285 27 -305 30 -23 3
-40 0 -46 -8z m215 -209 c42 -1 39 -2 -18 -7 -73 -7 -75 -7 -65 9 4 6 14 9 22
6 8 -3 36 -7 61 -8z"/>
<path d="M6195 1725 c-61 -23 -111 -69 -142 -133 -27 -55 -28 -62 -28 -212 1
-170 14 -243 65 -357 97 -215 338 -423 489 -423 52 0 81 12 125 51 98 85 109
219 31 371 l-34 68 27 0 c74 1 101 83 66 201 -51 170 -176 314 -350 401 -95
47 -181 58 -249 33z m166 -263 c50 -33 120 -105 143 -150 l15 -29 -78 40 c-63
32 -90 40 -135 41 l-56 0 0 32 c0 17 3 46 6 63 5 25 11 31 33 31 15 0 47 -13
72 -28z m-25 -331 c63 -37 150 -130 180 -196 26 -55 32 -115 11 -115 -50 0
-175 118 -217 205 -30 63 -48 135 -34 135 5 0 32 -13 60 -29z"/>
</g>
</svg>
